# xmcd
#
# Track frame offsets:
#	158
#	10083
#	22033
#	32958
#	46683
#	58945
#	70233
#	84108
#	97908
#	111533
#	124970
#	137708
#	152345
#	165633
#	177908
#	192858
#
# Disc length: 2821 seconds
# Revision: 5
# Processed by: cddbd v1.5.2PL0 Copyright (c) Steve Scherf et al.
# Submitted via: dBpowerAMP V12.0
#
DISCID=ce0b0310,dc0b0310
DTITLE=Various Artist - The best of Big city blues: The greatest blues singers
DYEAR=1987
DGENRE=Blues
TTITLE0=Howlin' Wolf - Wang dang doodle
TTITLE1=Howlin' Wolf - Spoonful
TTITLE2=Howlin' Wolf - Little red rooster
TTITLE3=Howlin' Wolf - Smokestack lightning
TTITLE4=Little Walter - Juke
TTITLE5=Little Walter - My babe
TTITLE6=Little Walter - Blues with a feeling
TTITLE7=Little Walter - Confessin the bues
TTITLE8=John Lee Hooker - Tease me baby
TTITLE9=John Lee Hooker - Ground hog blues
TTITLE10=John Lee Hooker - Leave my wife alone
TTITLE11=John Lee Hooker - Sugar mama
TTITLE12=Muddy Waters - Hoochie coochie man
TTITLE13=Muddy Waters - I just wanna make love to you
TTITLE14=Muddy Waters - She's 19 years old
TTITLE15=Muddy Waters - Got my mojo working
EXTD=
EXTT0=
EXTT1=
EXTT2=
EXTT3=
EXTT4=
EXTT5=
EXTT6=
EXTT7=
EXTT8=
EXTT9=
EXTT10=
EXTT11=
EXTT12=
EXTT13=
EXTT14=
EXTT15=
PLAYORDER=
